<mxfile host="app.diagrams.net" agent="Mozilla/5.0 (Windows NT 10.0; Win64; x64) AppleWebKit/537.36 (KHTML, like Gecko) Chrome/133.0.0.0 Safari/537.36" version="26.0.16">
  <diagram id="C5RBs43oDa-KdzZeNtuy" name="Page-1">
    <mxGraphModel dx="2232" dy="1029" grid="1" gridSize="10" guides="1" tooltips="1" connect="1" arrows="1" fold="1" page="1" pageScale="1" pageWidth="827" pageHeight="1169" math="0" shadow="0">
      <root>
        <mxCell id="WIyWlLk6GJQsqaUBKTNV-0" />
        <mxCell id="WIyWlLk6GJQsqaUBKTNV-1" parent="WIyWlLk6GJQsqaUBKTNV-0" />
        <mxCell id="WIyWlLk6GJQsqaUBKTNV-7" value="Irrelevant article removed&amp;nbsp;&lt;br&gt;(n = )" style="rounded=1;whiteSpace=wrap;html=1;fontSize=12;glass=0;strokeWidth=1;shadow=0;" parent="WIyWlLk6GJQsqaUBKTNV-1" vertex="1">
          <mxGeometry x="560" y="240" width="200" height="80" as="geometry" />
        </mxCell>
        <mxCell id="WIyWlLk6GJQsqaUBKTNV-11" value="Full-text articles excluded with reasons&amp;nbsp;&lt;br&gt;(n = )" style="rounded=1;whiteSpace=wrap;html=1;fontSize=12;glass=0;strokeWidth=1;shadow=0;" parent="WIyWlLk6GJQsqaUBKTNV-1" vertex="1">
          <mxGeometry x="560" y="560" width="200" height="80" as="geometry" />
        </mxCell>
        <mxCell id="xpX1tN6jX--aOgcp1Ym8-26" style="edgeStyle=orthogonalEdgeStyle;rounded=0;orthogonalLoop=1;jettySize=auto;html=1;exitX=0.5;exitY=1;exitDx=0;exitDy=0;" edge="1" parent="WIyWlLk6GJQsqaUBKTNV-1" source="xpX1tN6jX--aOgcp1Ym8-0">
          <mxGeometry relative="1" as="geometry">
            <mxPoint x="430.6666666666665" y="230" as="targetPoint" />
          </mxGeometry>
        </mxCell>
        <mxCell id="xpX1tN6jX--aOgcp1Ym8-0" value="Additional records identified through other sources&lt;br&gt;(n= )" style="rounded=0;whiteSpace=wrap;html=1;" vertex="1" parent="WIyWlLk6GJQsqaUBKTNV-1">
          <mxGeometry x="360" y="40" width="140" height="80" as="geometry" />
        </mxCell>
        <mxCell id="xpX1tN6jX--aOgcp1Ym8-27" style="edgeStyle=orthogonalEdgeStyle;rounded=0;orthogonalLoop=1;jettySize=auto;html=1;exitX=0.5;exitY=1;exitDx=0;exitDy=0;" edge="1" parent="WIyWlLk6GJQsqaUBKTNV-1" source="xpX1tN6jX--aOgcp1Ym8-4">
          <mxGeometry relative="1" as="geometry">
            <mxPoint x="233.33333333333348" y="230" as="targetPoint" />
          </mxGeometry>
        </mxCell>
        <mxCell id="xpX1tN6jX--aOgcp1Ym8-4" value="Records identified through databased searching&lt;br&gt;(n = )" style="rounded=0;whiteSpace=wrap;html=1;" vertex="1" parent="WIyWlLk6GJQsqaUBKTNV-1">
          <mxGeometry x="163.23" y="40" width="139.69" height="80" as="geometry" />
        </mxCell>
        <mxCell id="xpX1tN6jX--aOgcp1Ym8-25" style="edgeStyle=orthogonalEdgeStyle;rounded=0;orthogonalLoop=1;jettySize=auto;html=1;exitX=1;exitY=0.5;exitDx=0;exitDy=0;entryX=0;entryY=0.5;entryDx=0;entryDy=0;" edge="1" parent="WIyWlLk6GJQsqaUBKTNV-1" source="xpX1tN6jX--aOgcp1Ym8-5" target="WIyWlLk6GJQsqaUBKTNV-7">
          <mxGeometry relative="1" as="geometry" />
        </mxCell>
        <mxCell id="xpX1tN6jX--aOgcp1Ym8-31" style="edgeStyle=orthogonalEdgeStyle;rounded=0;orthogonalLoop=1;jettySize=auto;html=1;" edge="1" parent="WIyWlLk6GJQsqaUBKTNV-1" source="xpX1tN6jX--aOgcp1Ym8-5">
          <mxGeometry relative="1" as="geometry">
            <mxPoint x="300" y="390" as="targetPoint" />
          </mxGeometry>
        </mxCell>
        <mxCell id="xpX1tN6jX--aOgcp1Ym8-5" value="Records after duplicates removed&lt;br&gt;(n= )" style="rounded=0;whiteSpace=wrap;html=1;" vertex="1" parent="WIyWlLk6GJQsqaUBKTNV-1">
          <mxGeometry x="160" y="240" width="280" height="80" as="geometry" />
        </mxCell>
        <mxCell id="xpX1tN6jX--aOgcp1Ym8-24" style="edgeStyle=orthogonalEdgeStyle;rounded=0;orthogonalLoop=1;jettySize=auto;html=1;exitX=1;exitY=0.5;exitDx=0;exitDy=0;entryX=0;entryY=0.5;entryDx=0;entryDy=0;" edge="1" parent="WIyWlLk6GJQsqaUBKTNV-1" source="xpX1tN6jX--aOgcp1Ym8-6" target="xpX1tN6jX--aOgcp1Ym8-7">
          <mxGeometry relative="1" as="geometry" />
        </mxCell>
        <mxCell id="xpX1tN6jX--aOgcp1Ym8-32" style="edgeStyle=orthogonalEdgeStyle;rounded=0;orthogonalLoop=1;jettySize=auto;html=1;exitX=0.5;exitY=1;exitDx=0;exitDy=0;" edge="1" parent="WIyWlLk6GJQsqaUBKTNV-1" source="xpX1tN6jX--aOgcp1Ym8-6">
          <mxGeometry relative="1" as="geometry">
            <mxPoint x="302.6666666666665" y="550" as="targetPoint" />
          </mxGeometry>
        </mxCell>
        <mxCell id="xpX1tN6jX--aOgcp1Ym8-6" value="Records screened&lt;br&gt;(n = )" style="rounded=0;whiteSpace=wrap;html=1;" vertex="1" parent="WIyWlLk6GJQsqaUBKTNV-1">
          <mxGeometry x="163.23" y="400" width="280" height="80" as="geometry" />
        </mxCell>
        <mxCell id="xpX1tN6jX--aOgcp1Ym8-7" value="Record excluded&lt;br&gt;(n=)" style="rounded=1;whiteSpace=wrap;html=1;fontSize=12;glass=0;strokeWidth=1;shadow=0;" vertex="1" parent="WIyWlLk6GJQsqaUBKTNV-1">
          <mxGeometry x="560" y="400" width="200" height="80" as="geometry" />
        </mxCell>
        <mxCell id="xpX1tN6jX--aOgcp1Ym8-10" value="Identification" style="rounded=1;whiteSpace=wrap;html=1;rotation=-90;" vertex="1" parent="WIyWlLk6GJQsqaUBKTNV-1">
          <mxGeometry x="-6.06" y="102.98" width="159.04" height="61.95" as="geometry" />
        </mxCell>
        <mxCell id="xpX1tN6jX--aOgcp1Ym8-11" value="Screening" style="rounded=1;whiteSpace=wrap;html=1;rotation=-90;" vertex="1" parent="WIyWlLk6GJQsqaUBKTNV-1">
          <mxGeometry x="-19.89" y="330.16" width="200.04" height="66.11" as="geometry" />
        </mxCell>
        <mxCell id="xpX1tN6jX--aOgcp1Ym8-12" value="Eligibility" style="rounded=1;whiteSpace=wrap;html=1;rotation=-90;" vertex="1" parent="WIyWlLk6GJQsqaUBKTNV-1">
          <mxGeometry x="10.96" y="531.03" width="140.07" height="80" as="geometry" />
        </mxCell>
        <mxCell id="xpX1tN6jX--aOgcp1Ym8-13" value="Included" style="rounded=1;whiteSpace=wrap;html=1;rotation=-90;" vertex="1" parent="WIyWlLk6GJQsqaUBKTNV-1">
          <mxGeometry y="735.34" width="163.23" height="81.08" as="geometry" />
        </mxCell>
        <mxCell id="xpX1tN6jX--aOgcp1Ym8-23" style="edgeStyle=orthogonalEdgeStyle;rounded=0;orthogonalLoop=1;jettySize=auto;html=1;" edge="1" parent="WIyWlLk6GJQsqaUBKTNV-1" source="xpX1tN6jX--aOgcp1Ym8-18">
          <mxGeometry relative="1" as="geometry">
            <mxPoint x="550" y="597.5" as="targetPoint" />
          </mxGeometry>
        </mxCell>
        <mxCell id="xpX1tN6jX--aOgcp1Ym8-30" style="edgeStyle=orthogonalEdgeStyle;rounded=0;orthogonalLoop=1;jettySize=auto;html=1;entryX=0.5;entryY=0;entryDx=0;entryDy=0;" edge="1" parent="WIyWlLk6GJQsqaUBKTNV-1" source="xpX1tN6jX--aOgcp1Ym8-18" target="xpX1tN6jX--aOgcp1Ym8-19">
          <mxGeometry relative="1" as="geometry" />
        </mxCell>
        <mxCell id="xpX1tN6jX--aOgcp1Ym8-18" value="Full-text articles assessed for eligibility&amp;nbsp;&lt;div&gt;(n = )&lt;/div&gt;" style="rounded=0;whiteSpace=wrap;html=1;" vertex="1" parent="WIyWlLk6GJQsqaUBKTNV-1">
          <mxGeometry x="160" y="555" width="280" height="85" as="geometry" />
        </mxCell>
        <mxCell id="xpX1tN6jX--aOgcp1Ym8-19" value="Studies Included in the quantitative synthesis&amp;nbsp;&lt;br&gt;(meta-analysis)&lt;br&gt;(n = 3)" style="rounded=0;whiteSpace=wrap;html=1;" vertex="1" parent="WIyWlLk6GJQsqaUBKTNV-1">
          <mxGeometry x="160" y="720" width="280" height="80" as="geometry" />
        </mxCell>
      </root>
    </mxGraphModel>
  </diagram>
</mxfile>
